<svg xmlns="http://www.w3.org/2000/svg" width="64" height="48" viewBox="0 0 64 48">
  <rect width="64" height="48" fill="#012169" />
  <polygon fill="#fff" points="0,0 6.5,0 32,17 57.5,0 64,0 64,6.5 41,22 64,22 64,26 41,26 64,41.5 64,48 57.5,48 32,31 6.5,48 0,48 0,41.5 23,26 0,26 0,22 23,22 0,6.5" />
  <polygon fill="#c8102e" points="0,0 3.5,0 32,19 60.5,0 64,0 64,3.5 38,22 64,22 64,26 38,26 64,44.5 64,48 60.5,48 32,29 3.5,48 0,48 0,44.5 26,26 0,26 0,22 26,22 0,3.5" />
  <rect x="26" width="12" height="48" fill="#fff" />
  <rect y="18" width="64" height="12" fill="#fff" />
  <rect x="28" width="8" height="48" fill="#c8102e" />
  <rect y="20" width="64" height="8" fill="#c8102e" />
</svg>

